<?xml version="1.0" encoding="utf-8"?>
<!-- Generator: Adobe Illustrator 22.0.1, SVG Export Plug-In . SVG Version: 6.00 Build 0)  -->
<svg version="1.1" xmlns="http://www.w3.org/2000/svg" xmlns:xlink="http://www.w3.org/1999/xlink" x="0px" y="0px"
	 viewBox="0 0 5000 5000" style="enable-background:new 0 0 5000 5000;" xml:space="preserve">
<style type="text/css">
	.st0{display:none;}
	.st1{display:inline;}
	.st2{fill:#667BD6;stroke:#000000;stroke-width:10;stroke-miterlimit:10;}
	.st3{fill:#FFFFFF;stroke:#000000;stroke-width:10;stroke-miterlimit:10;}
</style>
<g id="Слой_1" class="st0">
	<rect class="st1" width="5029" height="5029"/>
</g>
<g id="Слой_2">
</g>
<g id="Слой_3">
	<g>
		<polygon class="st2" points="1916.6,1917.6 2500.6,1917.6 2500.6,1637 1636,1637 1636,2500.5 1916.6,2500.5 		"/>
		<polygon class="st2" points="3083.5,3084.5 2499.5,3084.5 2499.5,3364 3363,3364 3363,2499.4 3083.5,2499.4 		"/>
	</g>
</g>
<g id="Слой_4">
	<g>
		<path class="st3" d="M2214.5,2252.6c-19.4,16-29.2,37.2-29.2,63.5c0,26.4,11.9,47.3,35.6,62.9c23.8,15.6,78.6,33.9,164.6,55.1
			c86,21.2,152.7,52.9,200.2,95.3c47.5,42.3,71.3,104.1,71.3,185.3s-30.5,147.1-91.4,197.6s-141,75.8-240.4,75.8
			c-143.4,0-272.6-53.1-387.5-159.4l120.5-147.7c97.6,85.5,187.9,128.3,270.9,128.3c37.2,0,66.3-8,87.5-24
			c21.2-16,31.8-37.6,31.8-64.8s-11.2-48.8-33.7-64.8s-67-32.2-133.5-48.6c-105.4-25-182.5-57.7-231.3-97.8
			c-48.8-40.2-73.2-103.3-73.2-189.2s30.9-152.3,92.7-198.9s138.9-70,231.3-70c60.5,0,121,10.4,181.4,31.1s113.2,50.1,158.1,88.1
			L2537.9,2318c-78.6-59.6-159.8-89.4-243.6-89.4C2260.5,2228.6,2234,2236.6,2214.5,2252.6z"/>
		<path class="st3" d="M2826.2,2191.7c-22-22-33-49-33-81s11-59,33-81s49-33.1,81-33.1s59,11,81,33.1s33,49,33,81s-11,59-33,81
			s-49,33-81,33S2848.3,2213.7,2826.2,2191.7z M3004.4,2977.7H2810v-697.3h194.4V2977.7z"/>
	</g>
</g>
<g id="Слой_5">
</g>
</svg>
